<svg width="414" height="896" viewBox="0 0 414 896" fill="none" xmlns="http://www.w3.org/2000/svg">
<g clip-path="url(#clip0)">
<rect width="414" height="896" fill="url(#paint0_linear)"/>
<g filter="url(#filter0_d)">
<circle cx="18.5" cy="541.5" r="54.5" fill="url(#paint1_linear)" fill-opacity="0.5"/>
</g>
<g filter="url(#filter1_d)">
<circle cx="434.5" cy="427.5" r="54.5" fill="url(#paint2_linear)" fill-opacity="0.5"/>
</g>
<g filter="url(#filter2_d)">
<circle cx="222.5" cy="604.5" r="54.5" fill="url(#paint3_linear)" fill-opacity="0.5"/>
</g>
<g filter="url(#filter3_d)">
<circle cx="120.5" cy="146.5" r="377.5" fill="white"/>
</g>
<g filter="url(#filter4_d)">
<ellipse cx="384" cy="941.5" rx="403" ry="377.5" fill="white"/>
</g>
<rect x="73" y="258" width="268" height="50" rx="25" fill="#F8F8F8"/>
<rect x="73" y="323" width="268" height="50" rx="25" fill="#F8F8F8"/>
<g filter="url(#filter5_d)">
<rect x="112" y="411" width="190" height="50" rx="25" fill="url(#paint4_linear)"/>
</g>
<path fill-rule="evenodd" clip-rule="evenodd" d="M247.582 242.816C263 231.434 273 213.135 273 192.5C273 157.982 245.018 130 210.5 130C175.982 130 148 157.982 148 192.5C148 213.135 158 231.434 173.418 242.816C176.127 233.79 191.691 226.875 210.5 226.875C229.309 226.875 244.873 233.79 247.582 242.816ZM223.758 185.492C220.242 181.975 215.473 180 210.5 180C205.527 180 200.758 181.975 197.242 185.492C193.725 189.008 191.75 193.777 191.75 198.75C191.75 203.723 193.725 208.492 197.242 212.008C200.758 215.525 205.527 217.5 210.5 217.5C215.473 217.5 220.242 215.525 223.758 212.008C227.275 208.492 229.25 203.723 229.25 198.75C229.25 193.777 227.275 189.008 223.758 185.492Z" fill="url(#paint5_linear)"/>
<path d="M177.157 284.025C177.382 281.2 179.332 279.075 181.857 279.075C184.782 279.075 186.257 281.45 186.432 284.025H177.157ZM187.082 289.225C187.232 289.075 187.282 288.925 187.282 288.8C187.282 288.475 187.007 288.225 186.682 288.225C186.507 288.225 186.382 288.3 186.282 288.4C185.257 289.4 183.982 290.15 182.157 290.15C179.657 290.15 177.382 288.3 177.157 285.125H187.157C187.457 285.125 187.757 284.85 187.757 284.55C187.757 280.9 185.482 277.95 181.907 277.95C178.457 277.95 175.857 280.9 175.857 284.6V284.65C175.857 288.625 178.757 291.3 182.107 291.3C184.407 291.3 185.832 290.475 187.082 289.225ZM191.332 290.475C191.332 290.85 191.607 291.1 191.957 291.1C192.307 291.1 192.557 290.85 192.557 290.475V283.65C192.557 281.075 194.357 279.075 196.632 279.075C198.907 279.075 200.357 280.7 200.357 283.35V290.475C200.357 290.85 200.632 291.1 200.982 291.1C201.332 291.1 201.582 290.85 201.582 290.475V283.575C201.582 280.725 203.457 279.075 205.607 279.075C207.957 279.075 209.382 280.675 209.382 283.425V290.475C209.382 290.85 209.657 291.1 210.007 291.1C210.357 291.1 210.607 290.85 210.607 290.475V283.275C210.607 280.075 208.732 277.95 205.707 277.95C203.307 277.95 201.932 279.275 201.107 280.7C200.407 279.225 199.032 277.95 196.807 277.95C194.532 277.95 193.382 279.2 192.557 280.525V278.775C192.557 278.4 192.282 278.15 191.932 278.15C191.582 278.15 191.332 278.425 191.332 278.775V290.475ZM218.986 291.3C221.411 291.3 222.986 290.1 223.861 288.875V290.475C223.861 290.85 224.111 291.1 224.461 291.1C224.811 291.1 225.061 290.85 225.061 290.475V283.05C225.061 281.475 224.611 280.3 223.761 279.45C222.836 278.525 221.461 278.05 219.736 278.05C218.111 278.05 216.836 278.425 215.536 279C215.411 279.05 215.186 279.25 215.186 279.55C215.186 279.85 215.461 280.125 215.761 280.125C215.836 280.125 215.936 280.1 216.036 280.05C217.086 279.55 218.261 279.2 219.661 279.2C222.286 279.2 223.861 280.525 223.861 283.1V283.65C222.636 283.325 221.411 283.1 219.636 283.1C216.336 283.1 214.061 284.6 214.061 287.25V287.3C214.061 289.95 216.611 291.3 218.986 291.3ZM219.061 290.15C217.111 290.15 215.361 289.075 215.361 287.225V287.175C215.361 285.4 216.861 284.2 219.561 284.2C221.386 284.2 222.811 284.5 223.886 284.775V286.225C223.886 288.55 221.661 290.15 219.061 290.15ZM229.492 274.3C229.492 274.725 229.817 275.05 230.242 275.05C230.667 275.05 231.017 274.725 231.017 274.3V273.875C231.017 273.45 230.667 273.125 230.242 273.125C229.817 273.125 229.492 273.45 229.492 273.875V274.3ZM229.642 290.475C229.642 290.85 229.917 291.1 230.267 291.1C230.617 291.1 230.867 290.85 230.867 290.475V278.775C230.867 278.4 230.592 278.15 230.242 278.15C229.892 278.15 229.642 278.425 229.642 278.775V290.475ZM235.867 290.475C235.867 290.85 236.142 291.1 236.492 291.1C236.842 291.1 237.092 290.85 237.092 290.475V273.275C237.092 272.925 236.817 272.65 236.467 272.65C236.117 272.65 235.867 272.925 235.867 273.275V290.475Z" fill="black" fill-opacity="0.5"/>
<path d="M197.33 735.216C200.138 735.216 202.208 732.984 202.208 730.356V730.32C202.208 727.692 200.156 725.496 197.366 725.496C194.558 725.496 192.506 727.728 192.506 730.356V730.392C192.506 733.02 194.54 735.216 197.33 735.216ZM197.366 733.974C195.404 733.974 193.928 732.354 193.928 730.356V730.32C193.928 728.358 195.314 726.72 197.33 726.72C199.292 726.72 200.786 728.358 200.786 730.356V730.392C200.786 732.354 199.382 733.974 197.366 733.974ZM204.719 734.388C204.719 734.784 205.025 735.09 205.421 735.09C205.817 735.09 206.105 734.766 206.105 734.388V731.22C206.105 728.538 207.581 727.188 209.381 726.972C209.741 726.918 209.993 726.648 209.993 726.27C209.993 725.874 209.723 725.568 209.309 725.568C208.139 725.568 206.789 726.504 206.105 728.052V726.306C206.105 725.91 205.799 725.604 205.403 725.604C205.025 725.604 204.719 725.928 204.719 726.306V734.388Z" fill="black"/>
<path d="M176.228 445.25C175.094 445.25 173.994 445.067 172.928 444.7C171.878 444.317 170.986 443.775 170.253 443.075L171.628 440.55C173.244 441.733 174.736 442.325 176.103 442.325C176.619 442.325 177.019 442.242 177.303 442.075C177.586 441.908 177.728 441.65 177.728 441.3C177.728 440.933 177.536 440.675 177.153 440.525C176.769 440.358 176.203 440.167 175.453 439.95C174.453 439.617 173.619 439.292 172.953 438.975C172.286 438.658 171.786 438.275 171.453 437.825C171.119 437.375 170.953 436.775 170.953 436.025C170.953 434.708 171.444 433.65 172.428 432.85C173.411 432.033 174.744 431.625 176.428 431.625C177.328 431.625 178.203 431.767 179.053 432.05C179.919 432.333 180.728 432.808 181.478 433.475L179.928 435.975C179.178 435.458 178.511 435.083 177.928 434.85C177.344 434.617 176.778 434.5 176.228 434.5C175.794 434.5 175.428 434.583 175.128 434.75C174.828 434.9 174.678 435.167 174.678 435.55C174.678 435.917 174.844 436.192 175.178 436.375C175.511 436.542 176.028 436.725 176.728 436.925C177.794 437.242 178.686 437.567 179.403 437.9C180.136 438.217 180.678 438.617 181.028 439.1C181.394 439.567 181.578 440.192 181.578 440.975C181.578 442.308 181.094 443.358 180.128 444.125C179.161 444.875 177.861 445.25 176.228 445.25ZM183.629 430.375V426.75H187.629V430.375H183.629ZM183.629 445V431.875H187.629V445H183.629ZM195.468 445.05C194.301 445.05 193.284 444.75 192.418 444.15C191.551 443.55 190.868 442.75 190.368 441.75C189.884 440.75 189.643 439.642 189.643 438.425C189.643 437.142 189.901 435.992 190.418 434.975C190.934 433.942 191.651 433.125 192.568 432.525C193.484 431.925 194.543 431.625 195.743 431.625C196.726 431.625 197.593 431.842 198.343 432.275C199.093 432.692 199.693 433.275 200.143 434.025V431.875H203.618V444.1C203.618 445.433 203.293 446.583 202.643 447.55C202.009 448.517 201.118 449.258 199.968 449.775C198.834 450.308 197.518 450.575 196.018 450.575C194.618 450.575 193.409 450.342 192.393 449.875C191.393 449.425 190.518 448.783 189.768 447.95L191.918 445.775C192.401 446.325 193.001 446.758 193.718 447.075C194.451 447.408 195.218 447.575 196.018 447.575C196.668 447.575 197.259 447.458 197.793 447.225C198.343 446.992 198.784 446.617 199.118 446.1C199.451 445.6 199.618 444.933 199.618 444.1V442.825C199.218 443.558 198.634 444.117 197.868 444.5C197.118 444.867 196.318 445.05 195.468 445.05ZM196.843 441.875C197.459 441.875 198.009 441.708 198.493 441.375C198.976 441.025 199.351 440.583 199.618 440.05V437.3C199.351 436.617 198.943 436.067 198.393 435.65C197.843 435.233 197.259 435.025 196.643 435.025C196.076 435.025 195.568 435.192 195.118 435.525C194.684 435.842 194.343 436.267 194.093 436.8C193.843 437.333 193.718 437.908 193.718 438.525C193.718 439.492 194.018 440.292 194.618 440.925C195.218 441.558 195.959 441.875 196.843 441.875ZM219.009 445H215.009V437.625C215.009 436.758 214.842 436.133 214.509 435.75C214.192 435.35 213.767 435.15 213.234 435.15C212.684 435.15 212.126 435.367 211.559 435.8C210.992 436.233 210.592 436.792 210.359 437.475V445H206.359V431.875H209.959V434.075C210.442 433.308 211.126 432.708 212.009 432.275C212.892 431.842 213.909 431.625 215.059 431.625C215.909 431.625 216.592 431.783 217.109 432.1C217.642 432.4 218.042 432.8 218.309 433.3C218.592 433.783 218.776 434.317 218.859 434.9C218.959 435.483 219.009 436.05 219.009 436.6V445ZM227.501 430.375V426.75H231.501V430.375H227.501ZM227.501 445V431.875H231.501V445H227.501ZM246.89 445H242.89V437.625C242.89 436.758 242.723 436.133 242.39 435.75C242.073 435.35 241.648 435.15 241.115 435.15C240.565 435.15 240.006 435.367 239.44 435.8C238.873 436.233 238.473 436.792 238.24 437.475V445H234.24V431.875H237.84V434.075C238.323 433.308 239.006 432.708 239.89 432.275C240.773 431.842 241.79 431.625 242.94 431.625C243.79 431.625 244.473 431.783 244.99 432.1C245.523 432.4 245.923 432.8 246.19 433.3C246.473 433.783 246.656 434.317 246.74 434.9C246.84 435.483 246.89 436.05 246.89 436.6V445Z" fill="white"/>
<path d="M154.389 359.475C154.389 359.85 154.664 360.1 155.014 360.1C155.364 360.1 155.614 359.85 155.614 359.475V353.25C156.664 354.85 158.314 356.3 160.864 356.3C163.939 356.3 167.064 353.775 167.064 349.625V349.575C167.064 345.425 163.939 342.95 160.864 342.95C158.339 342.95 156.714 344.425 155.614 346.1V343.775C155.614 343.4 155.339 343.15 154.989 343.15C154.639 343.15 154.389 343.4 154.389 343.775V359.475ZM160.739 355.125C158.089 355.125 155.539 352.925 155.539 349.65V349.6C155.539 346.35 158.089 344.125 160.739 344.125C163.414 344.125 165.739 346.275 165.739 349.625V349.675C165.739 353.1 163.514 355.125 160.739 355.125ZM174.768 356.3C177.193 356.3 178.768 355.1 179.643 353.875V355.475C179.643 355.85 179.893 356.1 180.243 356.1C180.593 356.1 180.843 355.85 180.843 355.475V348.05C180.843 346.475 180.393 345.3 179.543 344.45C178.618 343.525 177.243 343.05 175.518 343.05C173.893 343.05 172.618 343.425 171.318 344C171.193 344.05 170.968 344.25 170.968 344.55C170.968 344.85 171.243 345.125 171.543 345.125C171.618 345.125 171.718 345.1 171.818 345.05C172.868 344.55 174.043 344.2 175.443 344.2C178.068 344.2 179.643 345.525 179.643 348.1V348.65C178.418 348.325 177.193 348.1 175.418 348.1C172.118 348.1 169.843 349.6 169.843 352.25V352.3C169.843 354.95 172.393 356.3 174.768 356.3ZM174.843 355.15C172.893 355.15 171.143 354.075 171.143 352.225V352.175C171.143 350.4 172.643 349.2 175.343 349.2C177.168 349.2 178.593 349.5 179.668 349.775V351.225C179.668 353.55 177.443 355.15 174.843 355.15ZM189.374 356.25C191.824 356.25 193.774 354.8 193.774 352.525V352.475C193.774 350.225 191.624 349.475 189.574 348.9C187.749 348.375 186.024 347.85 186.024 346.425V346.375C186.024 345.1 187.174 344.15 188.924 344.15C190.149 344.15 191.374 344.55 192.474 345.2C192.549 345.25 192.674 345.3 192.824 345.3C193.149 345.3 193.424 345.025 193.424 344.7C193.424 344.425 193.249 344.25 193.099 344.15C191.874 343.45 190.349 343 188.974 343C186.499 343 184.774 344.475 184.774 346.525V346.575C184.774 348.85 187.074 349.475 189.149 350.075C190.924 350.575 192.524 351.125 192.524 352.625V352.675C192.524 354.15 191.174 355.1 189.449 355.1C187.924 355.1 186.524 354.6 185.199 353.65C185.099 353.575 184.949 353.525 184.799 353.525C184.474 353.525 184.199 353.8 184.199 354.125C184.199 354.325 184.324 354.525 184.424 354.6C185.724 355.575 187.649 356.25 189.374 356.25ZM201.556 356.25C204.006 356.25 205.956 354.8 205.956 352.525V352.475C205.956 350.225 203.806 349.475 201.756 348.9C199.931 348.375 198.206 347.85 198.206 346.425V346.375C198.206 345.1 199.356 344.15 201.106 344.15C202.331 344.15 203.556 344.55 204.656 345.2C204.731 345.25 204.856 345.3 205.006 345.3C205.331 345.3 205.606 345.025 205.606 344.7C205.606 344.425 205.431 344.25 205.281 344.15C204.056 343.45 202.531 343 201.156 343C198.681 343 196.956 344.475 196.956 346.525V346.575C196.956 348.85 199.256 349.475 201.331 350.075C203.106 350.575 204.706 351.125 204.706 352.625V352.675C204.706 354.15 203.356 355.1 201.631 355.1C200.106 355.1 198.706 354.6 197.381 353.65C197.281 353.575 197.131 353.525 196.981 353.525C196.656 353.525 196.381 353.8 196.381 354.125C196.381 354.325 196.506 354.525 196.606 354.6C197.906 355.575 199.831 356.25 201.556 356.25ZM213.567 356.175H213.617C213.942 356.175 214.167 355.975 214.292 355.6L217.942 345.175L221.567 355.6C221.692 355.975 221.917 356.175 222.242 356.175H222.292C222.592 356.175 222.842 355.975 222.967 355.625L227.142 344.15C227.192 344.025 227.242 343.875 227.242 343.725C227.242 343.425 226.967 343.15 226.617 343.15C226.267 343.15 226.092 343.375 226.017 343.625L222.292 354.45L218.592 343.625C218.492 343.35 218.317 343.15 217.967 343.15H217.917C217.592 343.15 217.417 343.35 217.317 343.625L213.617 354.45L209.917 343.675C209.817 343.375 209.617 343.15 209.267 343.15C208.917 343.15 208.617 343.425 208.617 343.75C208.617 343.875 208.667 344.025 208.717 344.15L212.892 355.625C213.017 355.975 213.267 356.175 213.567 356.175ZM236.04 356.3C239.84 356.3 242.615 353.2 242.615 349.625V349.575C242.615 346 239.865 342.95 236.09 342.95C232.29 342.95 229.515 346.05 229.515 349.625V349.675C229.515 353.25 232.265 356.3 236.04 356.3ZM236.09 355.15C233.14 355.15 230.84 352.7 230.84 349.625V349.575C230.84 346.575 233.015 344.1 236.04 344.1C238.99 344.1 241.29 346.55 241.29 349.625V349.675C241.29 352.675 239.115 355.15 236.09 355.15ZM246.382 355.475C246.382 355.85 246.657 356.1 247.007 356.1C247.357 356.1 247.607 355.825 247.607 355.475V350.775C247.607 346.675 250.032 344.65 252.732 344.4C253.132 344.375 253.382 344.075 253.382 343.725C253.382 343.35 253.107 343.05 252.732 343.05C250.932 343.05 248.707 344.4 247.607 346.875V343.775C247.607 343.4 247.332 343.15 246.982 343.15C246.632 343.15 246.382 343.425 246.382 343.775V355.475ZM267.607 338.275C267.607 337.9 267.332 337.65 266.982 337.65C266.632 337.65 266.382 337.9 266.382 338.275V346C265.332 344.4 263.682 342.95 261.132 342.95C258.057 342.95 254.932 345.475 254.932 349.625V349.675C254.932 353.825 258.057 356.3 261.132 356.3C263.657 356.3 265.282 354.825 266.382 353.15V355.475C266.382 355.85 266.657 356.1 267.007 356.1C267.357 356.1 267.607 355.85 267.607 355.475V338.275ZM261.257 344.125C263.907 344.125 266.457 346.325 266.457 349.6V349.65C266.457 352.9 263.907 355.125 261.257 355.125C258.582 355.125 256.257 352.975 256.257 349.625V349.575C256.257 346.15 258.482 344.125 261.257 344.125Z" fill="black" fill-opacity="0.5"/>
<path d="M197.18 779.241C197.862 777.176 199.179 775.38 200.942 774.108C202.706 772.837 204.826 772.154 207 772.159C209.465 772.159 211.693 773.034 213.443 774.466L218.536 769.375C215.432 766.67 211.455 765 207 765C200.102 765 194.164 768.935 191.308 774.698L197.18 779.241Z" fill="#EA4335"/>
<path d="M212.892 791.269C211.302 792.294 209.284 792.841 207 792.841C204.835 792.845 202.723 792.169 200.963 790.906C199.203 789.644 197.885 787.86 197.196 785.807L191.304 790.28C192.75 793.206 194.987 795.668 197.761 797.386C200.536 799.104 203.737 800.01 207 800C211.277 800 215.364 798.479 218.425 795.625L212.893 791.269H212.892Z" fill="#34A853"/>
<path d="M218.425 795.625C221.626 792.638 223.704 788.193 223.704 782.5C223.704 781.465 223.545 780.352 223.307 779.318H207V786.08H216.386C215.924 788.354 214.68 790.114 212.893 791.269L218.425 795.625Z" fill="#4A90E2"/>
<path d="M197.196 785.808C196.839 784.741 196.658 783.624 196.659 782.5C196.659 781.36 196.841 780.264 197.18 779.241L191.309 774.698C190.107 777.123 189.488 779.794 189.5 782.5C189.5 785.3 190.149 787.94 191.304 790.28L197.196 785.808Z" fill="#FBBC05"/>
<path d="M159.5 765C149.875 765 142 772.889 142 782.605C142 791.391 148.405 798.682 156.77 800V787.701H152.325V782.605H156.77V778.722C156.77 774.312 159.377 771.888 163.385 771.888C165.292 771.888 167.287 772.221 167.287 772.221V776.561H165.082C162.912 776.561 162.23 777.914 162.23 779.302V782.605H167.095L166.307 787.701H162.23V800C166.354 799.346 170.109 797.234 172.817 794.044C175.526 790.854 177.009 786.797 177 782.605C177 772.889 169.125 765 159.5 765Z" fill="#1441E2"/>
<g clip-path="url(#clip1)">
<path d="M265.548 781.467C265.53 778.672 267.043 776.562 270.106 775.008C268.392 772.959 265.803 771.832 262.385 771.611C259.15 771.397 255.613 773.188 254.319 773.188C252.952 773.188 249.816 771.687 247.356 771.687C242.27 771.755 236.865 775.077 236.865 781.833C236.865 783.829 237.302 785.89 238.177 788.018C239.344 790.814 243.555 797.669 247.948 797.555C250.245 797.509 251.867 796.191 254.857 796.191C257.755 796.191 259.259 797.555 261.82 797.555C266.25 797.502 270.06 791.271 271.172 788.468C265.229 786.129 265.548 781.612 265.548 781.467ZM260.389 768.96C262.878 766.492 262.65 764.245 262.577 763.438C260.38 763.544 257.837 764.687 256.388 766.096C254.793 767.604 253.854 769.47 254.055 771.573C256.434 771.725 258.603 770.704 260.389 768.96Z" fill="black"/>
</g>
<path d="M101.425 690.256C101.425 689.948 101.187 689.71 100.879 689.71C100.571 689.71 100.347 689.948 100.347 690.256V694.148C99.787 693.336 98.919 692.608 97.575 692.608C95.839 692.608 94.117 694.008 94.117 696.374V696.402C94.117 698.782 95.839 700.154 97.575 700.154C98.905 700.154 99.759 699.412 100.347 698.544V699.524C100.347 699.832 100.585 700.07 100.893 700.07C101.187 700.07 101.425 699.832 101.425 699.524V690.256ZM97.771 693.574C99.115 693.574 100.389 694.694 100.389 696.36V696.388C100.389 698.054 99.115 699.188 97.771 699.188C96.413 699.188 95.223 698.096 95.223 696.388V696.36C95.223 694.61 96.371 693.574 97.771 693.574ZM107.138 700.168C109.322 700.168 110.932 698.432 110.932 696.388V696.36C110.932 694.316 109.336 692.608 107.166 692.608C104.982 692.608 103.386 694.344 103.386 696.388V696.416C103.386 698.46 104.968 700.168 107.138 700.168ZM107.166 699.202C105.64 699.202 104.492 697.942 104.492 696.388V696.36C104.492 694.834 105.57 693.56 107.138 693.56C108.664 693.56 109.826 694.834 109.826 696.388V696.416C109.826 697.942 108.734 699.202 107.166 699.202ZM112.885 699.524C112.885 699.832 113.123 700.07 113.431 700.07C113.739 700.07 113.963 699.832 113.963 699.524V695.856C113.963 694.498 114.887 693.588 116.133 693.588C117.407 693.588 118.135 694.428 118.135 695.772V699.524C118.135 699.832 118.373 700.07 118.681 700.07C118.975 700.07 119.213 699.832 119.213 699.524V695.506C119.213 693.784 118.191 692.608 116.441 692.608C115.195 692.608 114.439 693.238 113.963 694.022V693.238C113.963 692.93 113.725 692.692 113.417 692.692C113.123 692.692 112.885 692.944 112.885 693.238V699.524ZM121.008 693.084C121.008 693.252 121.12 693.364 121.302 693.364C121.526 693.364 121.96 693.154 122.254 692.846C122.576 692.524 122.758 692.02 122.758 691.166V690.9C122.758 690.452 122.478 690.13 122.072 690.13C121.708 690.13 121.428 690.424 121.428 690.788V691.012C121.428 691.376 121.68 691.6 121.974 691.67C122.002 692.216 121.764 692.566 121.19 692.818C121.078 692.86 121.008 692.958 121.008 693.084ZM127.365 700.126C127.785 700.126 128.121 700.056 128.429 699.93C128.611 699.86 128.737 699.706 128.737 699.51C128.737 699.258 128.527 699.048 128.275 699.048C128.191 699.048 127.995 699.146 127.617 699.146C126.889 699.146 126.399 698.824 126.399 697.942V693.714H128.275C128.541 693.714 128.765 693.504 128.765 693.238C128.765 692.986 128.541 692.762 128.275 692.762H126.399V691.054C126.399 690.76 126.147 690.508 125.853 690.508C125.545 690.508 125.321 690.76 125.321 691.054V692.762H124.733C124.481 692.762 124.257 692.972 124.257 693.238C124.257 693.49 124.481 693.714 124.733 693.714H125.321V698.082C125.321 699.552 126.203 700.126 127.365 700.126ZM134.801 699.524C134.801 699.832 135.039 700.07 135.347 700.07C135.655 700.07 135.879 699.832 135.879 699.524V695.856C135.879 694.498 136.803 693.588 138.049 693.588C139.323 693.588 140.051 694.428 140.051 695.772V699.524C140.051 699.832 140.289 700.07 140.597 700.07C140.891 700.07 141.129 699.832 141.129 699.524V695.506C141.129 693.784 140.107 692.608 138.357 692.608C137.111 692.608 136.355 693.238 135.879 694.022V690.256C135.879 689.962 135.641 689.71 135.333 689.71C135.039 689.71 134.801 689.962 134.801 690.256V699.524ZM145.584 700.154C146.858 700.154 147.698 699.566 148.202 698.908V699.566C148.202 699.846 148.412 700.07 148.72 700.07C149.014 700.07 149.238 699.846 149.238 699.538V695.576C149.238 694.652 148.986 693.952 148.496 693.462C147.964 692.93 147.18 692.664 146.158 692.664C145.234 692.664 144.506 692.846 143.792 693.154C143.652 693.21 143.498 693.378 143.498 693.602C143.498 693.854 143.722 694.064 143.974 694.064C144.03 694.064 144.1 694.05 144.17 694.022C144.702 693.784 145.318 693.616 146.046 693.616C147.404 693.616 148.202 694.288 148.202 695.59V695.842C147.558 695.66 146.9 695.534 145.976 695.534C144.142 695.534 142.882 696.346 142.882 697.872V697.9C142.882 699.384 144.24 700.154 145.584 700.154ZM145.794 699.3C144.814 699.3 143.974 698.768 143.974 697.858V697.83C143.974 696.92 144.73 696.332 146.088 696.332C146.97 696.332 147.684 696.486 148.216 696.64V697.34C148.216 698.488 147.124 699.3 145.794 699.3ZM154.789 699.65L157.519 693.49C157.547 693.42 157.575 693.322 157.575 693.224C157.575 692.93 157.337 692.692 157.043 692.692C156.763 692.692 156.609 692.874 156.539 693.084L154.159 698.768L151.821 693.112C151.737 692.874 151.583 692.692 151.275 692.692C150.967 692.692 150.729 692.944 150.729 693.224C150.729 693.322 150.771 693.42 150.799 693.518L153.515 699.65C153.641 699.93 153.837 700.112 154.131 700.112H154.187C154.481 700.112 154.663 699.93 154.789 699.65ZM159.726 695.982C159.866 694.568 160.818 693.518 162.078 693.518C163.52 693.518 164.276 694.666 164.388 695.982H159.726ZM164.976 699.076C165.088 698.978 165.144 698.852 165.144 698.726C165.144 698.474 164.934 698.264 164.668 698.264C164.542 698.264 164.444 698.32 164.36 698.39C163.828 698.88 163.17 699.23 162.274 699.23C160.986 699.23 159.88 698.348 159.726 696.78H164.962C165.228 696.78 165.466 696.57 165.466 696.276C165.466 694.358 164.248 692.608 162.106 692.608C160.104 692.608 158.634 694.288 158.634 696.374V696.402C158.634 698.642 160.258 700.168 162.246 700.168C163.478 700.168 164.29 699.734 164.976 699.076ZM173.72 700.154C174.994 700.154 175.834 699.566 176.338 698.908V699.566C176.338 699.846 176.548 700.07 176.856 700.07C177.15 700.07 177.374 699.846 177.374 699.538V695.576C177.374 694.652 177.122 693.952 176.632 693.462C176.1 692.93 175.316 692.664 174.294 692.664C173.37 692.664 172.642 692.846 171.928 693.154C171.788 693.21 171.634 693.378 171.634 693.602C171.634 693.854 171.858 694.064 172.11 694.064C172.166 694.064 172.236 694.05 172.306 694.022C172.838 693.784 173.454 693.616 174.182 693.616C175.54 693.616 176.338 694.288 176.338 695.59V695.842C175.694 695.66 175.036 695.534 174.112 695.534C172.278 695.534 171.018 696.346 171.018 697.872V697.9C171.018 699.384 172.376 700.154 173.72 700.154ZM173.93 699.3C172.95 699.3 172.11 698.768 172.11 697.858V697.83C172.11 696.92 172.866 696.332 174.224 696.332C175.106 696.332 175.82 696.486 176.352 696.64V697.34C176.352 698.488 175.26 699.3 173.93 699.3ZM179.672 699.524C179.672 699.832 179.91 700.07 180.218 700.07C180.526 700.07 180.75 699.832 180.75 699.524V695.856C180.75 694.498 181.674 693.588 182.92 693.588C184.194 693.588 184.922 694.428 184.922 695.772V699.524C184.922 699.832 185.16 700.07 185.468 700.07C185.762 700.07 186 699.832 186 699.524V695.506C186 693.784 184.978 692.608 183.228 692.608C181.982 692.608 181.226 693.238 180.75 694.022V693.238C180.75 692.93 180.512 692.692 180.204 692.692C179.91 692.692 179.672 692.944 179.672 693.238V699.524ZM194.652 700.154C195.926 700.154 196.766 699.566 197.27 698.908V699.566C197.27 699.846 197.48 700.07 197.788 700.07C198.082 700.07 198.306 699.846 198.306 699.538V695.576C198.306 694.652 198.054 693.952 197.564 693.462C197.032 692.93 196.248 692.664 195.226 692.664C194.302 692.664 193.574 692.846 192.86 693.154C192.72 693.21 192.566 693.378 192.566 693.602C192.566 693.854 192.79 694.064 193.042 694.064C193.098 694.064 193.168 694.05 193.238 694.022C193.77 693.784 194.386 693.616 195.114 693.616C196.472 693.616 197.27 694.288 197.27 695.59V695.842C196.626 695.66 195.968 695.534 195.044 695.534C193.21 695.534 191.95 696.346 191.95 697.872V697.9C191.95 699.384 193.308 700.154 194.652 700.154ZM194.862 699.3C193.882 699.3 193.042 698.768 193.042 697.858V697.83C193.042 696.92 193.798 696.332 195.156 696.332C196.038 696.332 196.752 696.486 197.284 696.64V697.34C197.284 698.488 196.192 699.3 194.862 699.3ZM203.865 700.168C205.083 700.168 205.909 699.692 206.595 699.006C206.679 698.922 206.735 698.796 206.735 698.67C206.735 698.418 206.511 698.18 206.245 698.18C206.105 698.18 206.007 698.25 205.937 698.32C205.405 698.824 204.747 699.202 203.921 699.202C202.409 699.202 201.261 697.956 201.261 696.388V696.36C201.261 694.806 202.381 693.56 203.851 693.56C204.719 693.56 205.307 693.952 205.825 694.428C205.909 694.498 206.035 694.554 206.175 694.554C206.455 694.554 206.693 694.33 206.693 694.036C206.693 693.868 206.609 693.728 206.525 693.658C205.881 693.07 205.069 692.608 203.865 692.608C201.751 692.608 200.155 694.344 200.155 696.388V696.416C200.155 698.446 201.751 700.168 203.865 700.168ZM211.658 700.168C212.876 700.168 213.702 699.692 214.388 699.006C214.472 698.922 214.528 698.796 214.528 698.67C214.528 698.418 214.304 698.18 214.038 698.18C213.898 698.18 213.8 698.25 213.73 698.32C213.198 698.824 212.54 699.202 211.714 699.202C210.202 699.202 209.054 697.956 209.054 696.388V696.36C209.054 694.806 210.174 693.56 211.644 693.56C212.512 693.56 213.1 693.952 213.618 694.428C213.702 694.498 213.828 694.554 213.968 694.554C214.248 694.554 214.486 694.33 214.486 694.036C214.486 693.868 214.402 693.728 214.318 693.658C213.674 693.07 212.862 692.608 211.658 692.608C209.544 692.608 207.948 694.344 207.948 696.388V696.416C207.948 698.446 209.544 700.168 211.658 700.168ZM219.493 700.168C221.677 700.168 223.287 698.432 223.287 696.388V696.36C223.287 694.316 221.691 692.608 219.521 692.608C217.337 692.608 215.741 694.344 215.741 696.388V696.416C215.741 698.46 217.323 700.168 219.493 700.168ZM219.521 699.202C217.995 699.202 216.847 697.942 216.847 696.388V696.36C216.847 694.834 217.925 693.56 219.493 693.56C221.019 693.56 222.181 694.834 222.181 696.388V696.416C222.181 697.942 221.089 699.202 219.521 699.202ZM231.442 693.238C231.442 692.93 231.204 692.692 230.91 692.692C230.602 692.692 230.378 692.93 230.378 693.238V696.906C230.378 698.264 229.44 699.174 228.208 699.174C226.934 699.174 226.206 698.334 226.206 696.99V693.238C226.206 692.93 225.954 692.692 225.66 692.692C225.352 692.692 225.128 692.93 225.128 693.238V697.256C225.128 698.978 226.15 700.154 227.9 700.154C229.146 700.154 229.888 699.524 230.378 698.74V699.524C230.378 699.832 230.616 700.07 230.91 700.07C231.218 700.07 231.442 699.818 231.442 699.524V693.238ZM233.867 699.524C233.867 699.832 234.105 700.07 234.413 700.07C234.721 700.07 234.945 699.832 234.945 699.524V695.856C234.945 694.498 235.869 693.588 237.115 693.588C238.389 693.588 239.117 694.428 239.117 695.772V699.524C239.117 699.832 239.355 700.07 239.663 700.07C239.957 700.07 240.195 699.832 240.195 699.524V695.506C240.195 693.784 239.173 692.608 237.423 692.608C236.177 692.608 235.421 693.238 234.945 694.022V693.238C234.945 692.93 234.707 692.692 234.399 692.692C234.105 692.692 233.867 692.944 233.867 693.238V699.524ZM244.916 700.126C245.336 700.126 245.672 700.056 245.98 699.93C246.162 699.86 246.288 699.706 246.288 699.51C246.288 699.258 246.078 699.048 245.826 699.048C245.742 699.048 245.546 699.146 245.168 699.146C244.44 699.146 243.95 698.824 243.95 697.942V693.714H245.826C246.092 693.714 246.316 693.504 246.316 693.238C246.316 692.986 246.092 692.762 245.826 692.762H243.95V691.054C243.95 690.76 243.698 690.508 243.404 690.508C243.096 690.508 242.872 690.76 242.872 691.054V692.762H242.284C242.032 692.762 241.808 692.972 241.808 693.238C241.808 693.49 242.032 693.714 242.284 693.714H242.872V698.082C242.872 699.552 243.754 700.126 244.916 700.126ZM250.422 697.298C250.618 697.298 250.758 697.144 250.786 696.92L250.884 695.716C252.48 695.492 253.796 694.624 253.796 692.874V692.846C253.796 691.25 252.55 690.074 250.66 690.074C249.302 690.074 248.35 690.634 247.608 691.446C247.496 691.558 247.44 691.698 247.44 691.824C247.44 692.104 247.664 692.314 247.944 692.314C248.098 692.314 248.224 692.244 248.322 692.16C248.952 691.474 249.694 691.068 250.632 691.068C251.892 691.068 252.676 691.88 252.676 692.888V692.916C252.676 694.092 251.738 694.75 250.254 694.862C249.988 694.89 249.82 695.086 249.848 695.352L250.002 696.92C250.03 697.144 250.184 697.298 250.366 697.298H250.422ZM249.708 699.118V699.398C249.708 699.776 250.002 700.07 250.38 700.07C250.758 700.07 251.052 699.776 251.052 699.398V699.118C251.052 698.74 250.758 698.46 250.38 698.46C250.002 698.46 249.708 698.74 249.708 699.118Z" fill="black"/>
<path d="M264.484 700.168C266.094 700.168 267.158 699.608 268.124 698.726C268.222 698.642 268.306 698.502 268.306 698.334C268.306 698.054 268.054 697.802 267.774 697.802C267.634 697.802 267.508 697.872 267.424 697.956C266.584 698.726 265.73 699.146 264.512 699.146C262.356 699.146 260.718 697.368 260.718 695.1V695.072C260.718 692.818 262.342 691.054 264.512 691.054C265.716 691.054 266.57 691.502 267.326 692.174C267.41 692.23 267.536 692.3 267.69 692.3C267.984 692.3 268.25 692.048 268.25 691.754C268.25 691.558 268.138 691.404 268.026 691.306C267.116 690.55 266.108 690.032 264.526 690.032C261.642 690.032 259.57 692.328 259.57 695.1V695.128C259.57 697.942 261.656 700.168 264.484 700.168ZM270.158 699.524C270.158 699.832 270.396 700.07 270.704 700.07C271.012 700.07 271.236 699.818 271.236 699.524V697.06C271.236 694.974 272.384 693.924 273.784 693.756C274.064 693.714 274.26 693.504 274.26 693.21C274.26 692.902 274.05 692.664 273.728 692.664C272.818 692.664 271.768 693.392 271.236 694.596V693.238C271.236 692.93 270.998 692.692 270.69 692.692C270.396 692.692 270.158 692.944 270.158 693.238V699.524ZM276.161 695.982C276.301 694.568 277.253 693.518 278.513 693.518C279.955 693.518 280.711 694.666 280.823 695.982H276.161ZM281.411 699.076C281.523 698.978 281.579 698.852 281.579 698.726C281.579 698.474 281.369 698.264 281.103 698.264C280.977 698.264 280.879 698.32 280.795 698.39C280.263 698.88 279.605 699.23 278.709 699.23C277.421 699.23 276.315 698.348 276.161 696.78H281.397C281.663 696.78 281.901 696.57 281.901 696.276C281.901 694.358 280.683 692.608 278.541 692.608C276.539 692.608 275.069 694.288 275.069 696.374V696.402C275.069 698.642 276.693 700.168 278.681 700.168C279.913 700.168 280.725 699.734 281.411 699.076ZM285.959 700.154C287.233 700.154 288.073 699.566 288.577 698.908V699.566C288.577 699.846 288.787 700.07 289.095 700.07C289.389 700.07 289.613 699.846 289.613 699.538V695.576C289.613 694.652 289.361 693.952 288.871 693.462C288.339 692.93 287.555 692.664 286.533 692.664C285.609 692.664 284.881 692.846 284.167 693.154C284.027 693.21 283.873 693.378 283.873 693.602C283.873 693.854 284.097 694.064 284.349 694.064C284.405 694.064 284.475 694.05 284.545 694.022C285.077 693.784 285.693 693.616 286.421 693.616C287.779 693.616 288.577 694.288 288.577 695.59V695.842C287.933 695.66 287.275 695.534 286.351 695.534C284.517 695.534 283.257 696.346 283.257 697.872V697.9C283.257 699.384 284.615 700.154 285.959 700.154ZM286.169 699.3C285.189 699.3 284.349 698.768 284.349 697.858V697.83C284.349 696.92 285.105 696.332 286.463 696.332C287.345 696.332 288.059 696.486 288.591 696.64V697.34C288.591 698.488 287.499 699.3 286.169 699.3ZM294.264 700.126C294.684 700.126 295.02 700.056 295.328 699.93C295.51 699.86 295.636 699.706 295.636 699.51C295.636 699.258 295.426 699.048 295.174 699.048C295.09 699.048 294.894 699.146 294.516 699.146C293.788 699.146 293.298 698.824 293.298 697.942V693.714H295.174C295.44 693.714 295.664 693.504 295.664 693.238C295.664 692.986 295.44 692.762 295.174 692.762H293.298V691.054C293.298 690.76 293.046 690.508 292.752 690.508C292.444 690.508 292.22 690.76 292.22 691.054V692.762H291.632C291.38 692.762 291.156 692.972 291.156 693.238C291.156 693.49 291.38 693.714 291.632 693.714H292.22V698.082C292.22 699.552 293.102 700.126 294.264 700.126ZM297.941 695.982C298.081 694.568 299.033 693.518 300.293 693.518C301.735 693.518 302.491 694.666 302.603 695.982H297.941ZM303.191 699.076C303.303 698.978 303.359 698.852 303.359 698.726C303.359 698.474 303.149 698.264 302.883 698.264C302.757 698.264 302.659 698.32 302.575 698.39C302.043 698.88 301.385 699.23 300.489 699.23C299.201 699.23 298.095 698.348 297.941 696.78H303.177C303.443 696.78 303.681 696.57 303.681 696.276C303.681 694.358 302.463 692.608 300.321 692.608C298.319 692.608 296.849 694.288 296.849 696.374V696.402C296.849 698.642 298.473 700.168 300.461 700.168C301.693 700.168 302.505 699.734 303.191 699.076ZM314.511 700.168C317.493 700.168 319.523 697.802 319.523 695.1V695.072C319.523 692.37 317.521 690.032 314.539 690.032C311.557 690.032 309.527 692.398 309.527 695.1V695.128C309.527 697.83 311.529 700.168 314.511 700.168ZM314.539 699.146C312.299 699.146 310.675 697.326 310.675 695.1V695.072C310.675 692.846 312.271 691.054 314.511 691.054C316.751 691.054 318.375 692.874 318.375 695.1V695.128C318.375 697.354 316.779 699.146 314.539 699.146ZM321.674 699.524C321.674 699.832 321.912 700.07 322.22 700.07C322.528 700.07 322.752 699.832 322.752 699.524V695.856C322.752 694.498 323.676 693.588 324.922 693.588C326.196 693.588 326.924 694.428 326.924 695.772V699.524C326.924 699.832 327.162 700.07 327.47 700.07C327.764 700.07 328.002 699.832 328.002 699.524V695.506C328.002 693.784 326.98 692.608 325.23 692.608C323.984 692.608 323.228 693.238 322.752 694.022V693.238C322.752 692.93 322.514 692.692 322.206 692.692C321.912 692.692 321.674 692.944 321.674 693.238V699.524ZM330.945 695.982C331.085 694.568 332.037 693.518 333.297 693.518C334.739 693.518 335.495 694.666 335.607 695.982H330.945ZM336.195 699.076C336.307 698.978 336.363 698.852 336.363 698.726C336.363 698.474 336.153 698.264 335.887 698.264C335.761 698.264 335.663 698.32 335.579 698.39C335.047 698.88 334.389 699.23 333.493 699.23C332.205 699.23 331.099 698.348 330.945 696.78H336.181C336.447 696.78 336.685 696.57 336.685 696.276C336.685 694.358 335.467 692.608 333.325 692.608C331.323 692.608 329.853 694.288 329.853 696.374V696.402C329.853 698.642 331.477 700.168 333.465 700.168C334.697 700.168 335.509 699.734 336.195 699.076Z" fill="#0085FF"/>
<path d="M44.262 62.4786L37.9307 68.8097C35.8351 70.8801 33.0053 72.0374 30.0594 72.0286C27.1134 72.0198 24.2906 70.8457 22.2075 68.7626C20.1244 66.6795 18.9501 63.8566 18.9413 60.9107C18.9324 57.9647 20.0896 55.1348 22.1601 53.0393L31.6167 43.5827C31.6118 43.4161 31.6084 43.2492 31.6084 43.0818C31.6075 41.6735 31.7883 40.2709 32.1463 38.9089L20.0891 50.9661C17.4638 53.6102 15.9934 57.1872 16 60.9132C16.0067 64.6393 17.4898 68.2109 20.1246 70.8457C22.7594 73.4804 26.331 74.9635 30.0571 74.97C33.7832 74.9767 37.3601 73.5063 40.0042 70.8809L46.3352 64.5498L44.262 62.4786Z" fill="url(#paint6_linear)"/>
<path d="M65.9104 74.9865C64.0612 74.9896 62.2296 74.6273 60.5209 73.9205C58.8122 73.2138 57.2598 72.1763 55.9531 70.8679L38.1106 53.0252C35.4758 50.3831 33.9974 46.8032 34 43.0718C34.0026 39.3405 35.4861 35.7627 38.1247 33.1243C40.7632 30.4858 44.341 29.0025 48.0725 29C51.8037 28.9975 55.3836 30.4761 58.0256 33.1109L75.8682 50.9535C77.8385 52.922 79.1806 55.4308 79.7244 58.1625C80.2686 60.894 79.9896 63.7257 78.9236 66.2988C77.8574 68.872 76.0519 71.0707 73.7354 72.6175C71.4189 74.1639 68.696 74.9883 65.9107 74.9865H65.9104ZM58.0256 68.7962C60.1222 70.8624 62.9504 72.0159 65.8941 72.0053C68.8375 71.9947 71.6575 70.8205 73.739 68.739C75.8203 66.6577 76.9945 63.8377 77.0051 60.8943C77.0157 57.9506 75.8622 55.1221 73.796 53.0258L55.9534 35.1832C54.9205 34.1353 53.6907 33.3022 52.3344 32.7318C50.9784 32.1613 49.5227 31.8649 48.0515 31.8596C46.5801 31.8543 45.1224 32.1401 43.7622 32.7007C42.402 33.2612 41.166 34.0854 40.1256 35.1258C39.0853 36.1661 38.2611 37.402 37.7005 38.7623C37.14 40.1226 36.8541 41.5803 36.8595 43.0516C36.8648 44.5228 37.1612 45.9785 37.7316 47.3347C38.302 48.6909 39.1352 49.9208 40.183 50.9535L58.0256 68.7962Z" fill="url(#paint7_linear)"/>
<path d="M77.3311 33.1245L71 39.4555L73.0722 41.5278L79.4033 35.1967C81.4999 33.1305 84.3281 31.9769 87.2718 31.9876C90.2152 31.9983 93.0352 33.1723 95.1167 35.2537C97.198 37.3352 98.3722 40.1551 98.3828 43.0987C98.3934 46.0422 97.2399 48.8706 95.1736 50.9671L85.7098 60.431C85.7576 62.0087 85.577 63.5852 85.1739 65.1113L97.2459 53.0393C99.8868 50.3984 101.37 46.8166 101.37 43.0819C101.37 39.3471 99.8868 35.7654 97.2459 33.1245C94.6049 30.4836 91.0232 29 87.2883 29C83.5537 29 79.972 30.4836 77.3311 33.1245Z" fill="url(#paint8_linear)"/>
<path d="M29.3 56.727C29.3 56.922 29.443 57.052 29.625 57.052C29.807 57.052 29.937 56.922 29.937 56.727V47.783C29.937 47.601 29.794 47.458 29.612 47.458C29.43 47.458 29.3 47.601 29.3 47.783V56.727Z" fill="black"/>
<path d="M49.222 48.316C49.222 48.537 49.391 48.706 49.612 48.706C49.833 48.706 50.015 48.537 50.015 48.316V48.095C50.015 47.874 49.833 47.705 49.612 47.705C49.391 47.705 49.222 47.874 49.222 48.095V48.316ZM49.3 56.727C49.3 56.922 49.443 57.052 49.625 57.052C49.807 57.052 49.937 56.922 49.937 56.727V50.643C49.937 50.448 49.794 50.318 49.612 50.318C49.43 50.318 49.3 50.461 49.3 50.643V56.727Z" fill="black"/>
<path d="M58.209 56.727C58.209 56.922 58.352 57.052 58.534 57.052C58.716 57.052 58.846 56.922 58.846 56.727V53.165C58.846 51.787 59.847 50.799 61.147 50.799C62.486 50.799 63.253 51.696 63.253 53.061V56.727C63.253 56.922 63.396 57.052 63.578 57.052C63.76 57.052 63.89 56.922 63.89 56.727V52.944C63.89 51.358 62.915 50.214 61.238 50.214C60.029 50.214 59.288 50.825 58.846 51.605V50.643C58.846 50.448 58.703 50.318 58.521 50.318C58.339 50.318 58.209 50.461 58.209 50.643V56.727Z" fill="black"/>
<path d="M81.209 56.727C81.209 56.922 81.352 57.052 81.534 57.052C81.716 57.052 81.846 56.922 81.846 56.727V55.388L83.458 53.763L86.006 56.909C86.097 57.013 86.162 57.052 86.279 57.052C86.461 57.052 86.591 56.935 86.591 56.753C86.591 56.662 86.565 56.597 86.5 56.519L83.9 53.308L86.331 50.838C86.409 50.76 86.435 50.708 86.435 50.617C86.435 50.448 86.305 50.318 86.136 50.318C86.045 50.318 85.98 50.344 85.915 50.409L81.846 54.621V47.783C81.846 47.601 81.703 47.458 81.521 47.458C81.339 47.458 81.209 47.601 81.209 47.783V56.727Z" fill="black"/>
</g>
<defs>
<filter id="filter0_d" x="-124" y="403" width="285" height="285" filterUnits="userSpaceOnUse" color-interpolation-filters="sRGB">
<feFlood flood-opacity="0" result="BackgroundImageFix"/>
<feColorMatrix in="SourceAlpha" type="matrix" values="0 0 0 0 0 0 0 0 0 0 0 0 0 0 0 0 0 0 127 0"/>
<feOffset dy="4"/>
<feGaussianBlur stdDeviation="44"/>
<feColorMatrix type="matrix" values="0 0 0 0 0 0 0 0 0 0 0 0 0 0 0 0 0 0 0.2 0"/>
<feBlend mode="normal" in2="BackgroundImageFix" result="effect1_dropShadow"/>
<feBlend mode="normal" in="SourceGraphic" in2="effect1_dropShadow" result="shape"/>
</filter>
<filter id="filter1_d" x="292" y="289" width="285" height="285" filterUnits="userSpaceOnUse" color-interpolation-filters="sRGB">
<feFlood flood-opacity="0" result="BackgroundImageFix"/>
<feColorMatrix in="SourceAlpha" type="matrix" values="0 0 0 0 0 0 0 0 0 0 0 0 0 0 0 0 0 0 127 0"/>
<feOffset dy="4"/>
<feGaussianBlur stdDeviation="44"/>
<feColorMatrix type="matrix" values="0 0 0 0 0 0 0 0 0 0 0 0 0 0 0 0 0 0 0.2 0"/>
<feBlend mode="normal" in2="BackgroundImageFix" result="effect1_dropShadow"/>
<feBlend mode="normal" in="SourceGraphic" in2="effect1_dropShadow" result="shape"/>
</filter>
<filter id="filter2_d" x="80" y="466" width="285" height="285" filterUnits="userSpaceOnUse" color-interpolation-filters="sRGB">
<feFlood flood-opacity="0" result="BackgroundImageFix"/>
<feColorMatrix in="SourceAlpha" type="matrix" values="0 0 0 0 0 0 0 0 0 0 0 0 0 0 0 0 0 0 127 0"/>
<feOffset dy="4"/>
<feGaussianBlur stdDeviation="44"/>
<feColorMatrix type="matrix" values="0 0 0 0 0 0 0 0 0 0 0 0 0 0 0 0 0 0 0.2 0"/>
<feBlend mode="normal" in2="BackgroundImageFix" result="effect1_dropShadow"/>
<feBlend mode="normal" in="SourceGraphic" in2="effect1_dropShadow" result="shape"/>
</filter>
<filter id="filter3_d" x="-268" y="-238" width="777" height="777" filterUnits="userSpaceOnUse" color-interpolation-filters="sRGB">
<feFlood flood-opacity="0" result="BackgroundImageFix"/>
<feColorMatrix in="SourceAlpha" type="matrix" values="0 0 0 0 0 0 0 0 0 0 0 0 0 0 0 0 0 0 127 0"/>
<feOffset dy="4"/>
<feGaussianBlur stdDeviation="5.5"/>
<feColorMatrix type="matrix" values="0 0 0 0 0 0 0 0 0 0 0 0 0 0 0 0 0 0 0.25 0"/>
<feBlend mode="normal" in2="BackgroundImageFix" result="effect1_dropShadow"/>
<feBlend mode="normal" in="SourceGraphic" in2="effect1_dropShadow" result="shape"/>
</filter>
<filter id="filter4_d" x="-30" y="549" width="828" height="777" filterUnits="userSpaceOnUse" color-interpolation-filters="sRGB">
<feFlood flood-opacity="0" result="BackgroundImageFix"/>
<feColorMatrix in="SourceAlpha" type="matrix" values="0 0 0 0 0 0 0 0 0 0 0 0 0 0 0 0 0 0 127 0"/>
<feOffset dy="-4"/>
<feGaussianBlur stdDeviation="5.5"/>
<feColorMatrix type="matrix" values="0 0 0 0 0 0 0 0 0 0 0 0 0 0 0 0 0 0 0.25 0"/>
<feBlend mode="normal" in2="BackgroundImageFix" result="effect1_dropShadow"/>
<feBlend mode="normal" in="SourceGraphic" in2="effect1_dropShadow" result="shape"/>
</filter>
<filter id="filter5_d" x="87" y="388" width="240" height="100" filterUnits="userSpaceOnUse" color-interpolation-filters="sRGB">
<feFlood flood-opacity="0" result="BackgroundImageFix"/>
<feColorMatrix in="SourceAlpha" type="matrix" values="0 0 0 0 0 0 0 0 0 0 0 0 0 0 0 0 0 0 127 0"/>
<feOffset dy="2"/>
<feGaussianBlur stdDeviation="12.5"/>
<feColorMatrix type="matrix" values="0 0 0 0 0 0 0 0 0 0 0 0 0 0 0 0 0 0 0.15 0"/>
<feBlend mode="normal" in2="BackgroundImageFix" result="effect1_dropShadow"/>
<feBlend mode="normal" in="SourceGraphic" in2="effect1_dropShadow" result="shape"/>
</filter>
<linearGradient id="paint0_linear" x1="207" y1="0" x2="207" y2="896" gradientUnits="userSpaceOnUse">
<stop offset="0.00277652" stop-color="#001AFF"/>
<stop offset="0.9999" stop-color="#C31AFF" stop-opacity="0.480501"/>
<stop offset="1" stop-color="#031CFF" stop-opacity="0"/>
</linearGradient>
<linearGradient id="paint1_linear" x1="18.5" y1="487" x2="18.5" y2="596" gradientUnits="userSpaceOnUse">
<stop stop-color="#587CFA"/>
<stop offset="1" stop-color="#DC77FF" stop-opacity="0.480501"/>
</linearGradient>
<linearGradient id="paint2_linear" x1="434.5" y1="373" x2="434.5" y2="482" gradientUnits="userSpaceOnUse">
<stop stop-color="#587CFA"/>
<stop offset="1" stop-color="#DC77FF" stop-opacity="0.480501"/>
</linearGradient>
<linearGradient id="paint3_linear" x1="222.5" y1="550" x2="222.5" y2="659" gradientUnits="userSpaceOnUse">
<stop stop-color="#587CFA"/>
<stop offset="1" stop-color="#DC77FF" stop-opacity="0.480501"/>
</linearGradient>
<linearGradient id="paint4_linear" x1="302" y1="436" x2="112" y2="436" gradientUnits="userSpaceOnUse">
<stop stop-color="#063DFE"/>
<stop offset="1" stop-color="#C31AFF"/>
</linearGradient>
<linearGradient id="paint5_linear" x1="210.5" y1="130" x2="210.5" y2="255" gradientUnits="userSpaceOnUse">
<stop stop-color="#001AFF"/>
<stop offset="1" stop-color="#C31AFF"/>
</linearGradient>
<linearGradient id="paint6_linear" x1="15.1506" y1="61.3389" x2="101.495" y2="45.3792" gradientUnits="userSpaceOnUse">
<stop stop-color="#001AFF"/>
<stop offset="1" stop-color="#C31AFF"/>
</linearGradient>
<linearGradient id="paint7_linear" x1="15.6938" y1="62.8002" x2="100.967" y2="40.4883" gradientUnits="userSpaceOnUse">
<stop stop-color="#001AFF"/>
<stop offset="1" stop-color="#C31AFF"/>
</linearGradient>
<linearGradient id="paint8_linear" x1="19.5526" y1="64.2445" x2="106.028" y2="48.2699" gradientUnits="userSpaceOnUse">
<stop stop-color="#001AFF"/>
<stop offset="1" stop-color="#C31AFF" stop-opacity="0.480501"/>
</linearGradient>
<clipPath id="clip0">
<rect width="414" height="896" fill="white"/>
</clipPath>
<clipPath id="clip1">
<rect width="35" height="39" fill="white" transform="translate(236.5 761)"/>
</clipPath>
</defs>
</svg>
