<svg width="78" height="11" viewBox="0 0 78 11" fill="none" xmlns="http://www.w3.org/2000/svg">
<path d="M4.98416 10.168C6.59416 10.168 7.65816 9.608 8.62416 8.726C8.72216 8.642 8.80616 8.502 8.80616 8.334C8.80616 8.054 8.55416 7.802 8.27416 7.802C8.13416 7.802 8.00816 7.872 7.92416 7.956C7.08416 8.726 6.23016 9.146 5.01216 9.146C2.85616 9.146 1.21816 7.368 1.21816 5.1V5.072C1.21816 2.818 2.84216 1.054 5.01216 1.054C6.21616 1.054 7.07016 1.502 7.82616 2.174C7.91016 2.23 8.03616 2.3 8.19016 2.3C8.48416 2.3 8.75016 2.048 8.75016 1.754C8.75016 1.558 8.63816 1.404 8.52616 1.306C7.61616 0.55 6.60816 0.0319998 5.02616 0.0319998C2.14216 0.0319998 0.0701641 2.328 0.0701641 5.1V5.128C0.0701641 7.942 2.15616 10.168 4.98416 10.168ZM10.6581 9.524C10.6581 9.832 10.8961 10.07 11.2041 10.07C11.5121 10.07 11.7361 9.818 11.7361 9.524V7.06C11.7361 4.974 12.8841 3.924 14.2841 3.756C14.5641 3.714 14.7601 3.504 14.7601 3.21C14.7601 2.902 14.5501 2.664 14.2281 2.664C13.3181 2.664 12.2681 3.392 11.7361 4.596V3.238C11.7361 2.93 11.4981 2.692 11.1901 2.692C10.8961 2.692 10.6581 2.944 10.6581 3.238V9.524ZM16.6615 5.982C16.8015 4.568 17.7535 3.518 19.0135 3.518C20.4555 3.518 21.2115 4.666 21.3235 5.982H16.6615ZM21.9115 9.076C22.0235 8.978 22.0795 8.852 22.0795 8.726C22.0795 8.474 21.8695 8.264 21.6035 8.264C21.4775 8.264 21.3795 8.32 21.2955 8.39C20.7635 8.88 20.1055 9.23 19.2095 9.23C17.9215 9.23 16.8155 8.348 16.6615 6.78H21.8975C22.1635 6.78 22.4015 6.57 22.4015 6.276C22.4015 4.358 21.1835 2.608 19.0415 2.608C17.0395 2.608 15.5695 4.288 15.5695 6.374V6.402C15.5695 8.642 17.1935 10.168 19.1815 10.168C20.4135 10.168 21.2255 9.734 21.9115 9.076ZM26.4586 10.154C27.7326 10.154 28.5726 9.566 29.0766 8.908V9.566C29.0766 9.846 29.2866 10.07 29.5946 10.07C29.8886 10.07 30.1126 9.846 30.1126 9.538V5.576C30.1126 4.652 29.8606 3.952 29.3706 3.462C28.8386 2.93 28.0546 2.664 27.0326 2.664C26.1086 2.664 25.3806 2.846 24.6666 3.154C24.5266 3.21 24.3726 3.378 24.3726 3.602C24.3726 3.854 24.5966 4.064 24.8486 4.064C24.9046 4.064 24.9746 4.05 25.0446 4.022C25.5766 3.784 26.1926 3.616 26.9206 3.616C28.2786 3.616 29.0766 4.288 29.0766 5.59V5.842C28.4326 5.66 27.7746 5.534 26.8506 5.534C25.0166 5.534 23.7566 6.346 23.7566 7.872V7.9C23.7566 9.384 25.1146 10.154 26.4586 10.154ZM26.6686 9.3C25.6886 9.3 24.8486 8.768 24.8486 7.858V7.83C24.8486 6.92 25.6046 6.332 26.9626 6.332C27.8446 6.332 28.5586 6.486 29.0906 6.64V7.34C29.0906 8.488 27.9986 9.3 26.6686 9.3ZM34.7637 10.126C35.1837 10.126 35.5197 10.056 35.8277 9.93C36.0097 9.86 36.1357 9.706 36.1357 9.51C36.1357 9.258 35.9257 9.048 35.6737 9.048C35.5897 9.048 35.3937 9.146 35.0157 9.146C34.2877 9.146 33.7977 8.824 33.7977 7.942V3.714H35.6737C35.9397 3.714 36.1637 3.504 36.1637 3.238C36.1637 2.986 35.9397 2.762 35.6737 2.762H33.7977V1.054C33.7977 0.76 33.5457 0.508 33.2517 0.508C32.9437 0.508 32.7197 0.76 32.7197 1.054V2.762H32.1317C31.8797 2.762 31.6557 2.972 31.6557 3.238C31.6557 3.49 31.8797 3.714 32.1317 3.714H32.7197V8.082C32.7197 9.552 33.6017 10.126 34.7637 10.126ZM38.4408 5.982C38.5808 4.568 39.5328 3.518 40.7928 3.518C42.2348 3.518 42.9908 4.666 43.1028 5.982H38.4408ZM43.6908 9.076C43.8028 8.978 43.8588 8.852 43.8588 8.726C43.8588 8.474 43.6488 8.264 43.3828 8.264C43.2568 8.264 43.1588 8.32 43.0748 8.39C42.5428 8.88 41.8848 9.23 40.9888 9.23C39.7008 9.23 38.5948 8.348 38.4408 6.78H43.6768C43.9428 6.78 44.1808 6.57 44.1808 6.276C44.1808 4.358 42.9628 2.608 40.8208 2.608C38.8188 2.608 37.3488 4.288 37.3488 6.374V6.402C37.3488 8.642 38.9728 10.168 40.9608 10.168C42.1928 10.168 43.0048 9.734 43.6908 9.076ZM55.0112 10.168C57.9932 10.168 60.0232 7.802 60.0232 5.1V5.072C60.0232 2.37 58.0212 0.0319998 55.0392 0.0319998C52.0572 0.0319998 50.0272 2.398 50.0272 5.1V5.128C50.0272 7.83 52.0292 10.168 55.0112 10.168ZM55.0392 9.146C52.7992 9.146 51.1752 7.326 51.1752 5.1V5.072C51.1752 2.846 52.7712 1.054 55.0112 1.054C57.2512 1.054 58.8752 2.874 58.8752 5.1V5.128C58.8752 7.354 57.2792 9.146 55.0392 9.146ZM62.1737 9.524C62.1737 9.832 62.4117 10.07 62.7197 10.07C63.0277 10.07 63.2517 9.832 63.2517 9.524V5.856C63.2517 4.498 64.1757 3.588 65.4217 3.588C66.6957 3.588 67.4237 4.428 67.4237 5.772V9.524C67.4237 9.832 67.6617 10.07 67.9697 10.07C68.2637 10.07 68.5017 9.832 68.5017 9.524V5.506C68.5017 3.784 67.4797 2.608 65.7297 2.608C64.4837 2.608 63.7277 3.238 63.2517 4.022V3.238C63.2517 2.93 63.0137 2.692 62.7057 2.692C62.4117 2.692 62.1737 2.944 62.1737 3.238V9.524ZM71.4447 5.982C71.5847 4.568 72.5367 3.518 73.7967 3.518C75.2387 3.518 75.9947 4.666 76.1067 5.982H71.4447ZM76.6947 9.076C76.8067 8.978 76.8627 8.852 76.8627 8.726C76.8627 8.474 76.6527 8.264 76.3867 8.264C76.2607 8.264 76.1627 8.32 76.0787 8.39C75.5467 8.88 74.8887 9.23 73.9927 9.23C72.7047 9.23 71.5987 8.348 71.4447 6.78H76.6807C76.9467 6.78 77.1847 6.57 77.1847 6.276C77.1847 4.358 75.9667 2.608 73.8247 2.608C71.8227 2.608 70.3527 4.288 70.3527 6.374V6.402C70.3527 8.642 71.9767 10.168 73.9647 10.168C75.1967 10.168 76.0087 9.734 76.6947 9.076Z" fill="#0085FF"/>
</svg>
