<svg width="408" height="114" viewBox="0 0 408 114" fill="none" xmlns="http://www.w3.org/2000/svg">
<g filter="url(#filter0_d)">
<rect x="7" y="3" width="394" height="100" rx="15" fill="white"/>
</g>
<path d="M25.325 45.15C25.325 45.7 25.75 46.125 26.3 46.125C26.85 46.125 27.25 45.7 27.25 45.15V28.6C27.25 28.075 26.825 27.625 26.275 27.625C25.75 27.625 25.325 28.075 25.325 28.6V45.15ZM31.7174 29.35C31.7174 29.95 32.2174 30.375 32.8424 30.375C33.4924 30.375 33.9924 29.95 33.9924 29.35V29.025C33.9924 28.4 33.4924 28 32.8424 28C32.2174 28 31.7174 28.4 31.7174 29.025V29.35ZM31.8924 45.15C31.8924 45.7 32.3174 46.125 32.8674 46.125C33.4174 46.125 33.8174 45.7 33.8174 45.15V33.925C33.8174 33.375 33.3924 32.95 32.8424 32.95C32.3174 32.95 31.8924 33.4 31.8924 33.925V45.15ZM38.2848 45.15C38.2848 45.7 38.7098 46.125 39.2598 46.125C39.8098 46.125 40.2098 45.7 40.2098 45.15V38.6C40.2098 36.175 41.8598 34.55 44.0848 34.55C46.3598 34.55 47.6598 36.05 47.6598 38.45V45.15C47.6598 45.7 48.0848 46.125 48.6348 46.125C49.1598 46.125 49.5848 45.7 49.5848 45.15V37.975C49.5848 34.9 47.7598 32.8 44.6348 32.8C42.4098 32.8 41.0598 33.925 40.2098 35.325V33.925C40.2098 33.375 39.7848 32.95 39.2348 32.95C38.7098 32.95 38.2848 33.4 38.2848 33.925V45.15ZM53.69 45.15C53.69 45.7 54.115 46.125 54.665 46.125C55.215 46.125 55.615 45.7 55.615 45.15V42.675L58.29 40.025L62.765 45.675C63.015 46 63.24 46.125 63.59 46.125C64.115 46.125 64.515 45.75 64.515 45.225C64.515 44.975 64.44 44.8 64.265 44.575L59.64 38.75L63.865 34.6C64.115 34.35 64.24 34.15 64.24 33.85C64.24 33.375 63.89 32.95 63.365 32.95C63.065 32.95 62.84 33.075 62.615 33.325L55.615 40.45V28.6C55.615 28.075 55.19 27.625 54.64 27.625C54.115 27.625 53.69 28.075 53.69 28.6V45.15ZM86.4691 33.925C86.4691 33.375 86.0441 32.95 85.5191 32.95C84.9691 32.95 84.5691 33.375 84.5691 33.925V40.475C84.5691 42.9 82.8941 44.525 80.6941 44.525C78.4191 44.525 77.1191 43.025 77.1191 40.625V33.925C77.1191 33.375 76.6691 32.95 76.1441 32.95C75.5941 32.95 75.1941 33.375 75.1941 33.925V41.1C75.1941 44.175 77.0191 46.275 80.1441 46.275C82.3691 46.275 83.6941 45.15 84.5691 43.75V45.15C84.5691 45.7 84.9941 46.125 85.5191 46.125C86.0691 46.125 86.4691 45.675 86.4691 45.15V33.925ZM90.7994 49.15C90.7994 49.7 91.2244 50.125 91.7744 50.125C92.3244 50.125 92.7244 49.7 92.7244 49.15V43.525C93.7244 44.975 95.2744 46.275 97.6744 46.275C100.799 46.275 103.849 43.775 103.849 39.55V39.5C103.849 35.25 100.774 32.8 97.6744 32.8C95.2994 32.8 93.7744 34.125 92.7244 35.675V33.925C92.7244 33.375 92.2994 32.95 91.7494 32.95C91.2244 32.95 90.7994 33.375 90.7994 33.925V49.15ZM97.3244 44.55C94.9244 44.55 92.6494 42.55 92.6494 39.55V39.5C92.6494 36.55 94.9244 34.525 97.3244 34.525C99.7744 34.525 101.874 36.475 101.874 39.525V39.575C101.874 42.7 99.8244 44.55 97.3244 44.55ZM119.121 46.2H119.171C119.671 46.2 120.046 45.9 120.221 45.325L123.471 35.9L126.696 45.325C126.871 45.9 127.246 46.2 127.746 46.2H127.821C128.271 46.2 128.671 45.9 128.871 45.325L132.821 34.375C132.871 34.225 132.946 34.025 132.946 33.85C132.946 33.375 132.546 32.95 131.996 32.95C131.471 32.95 131.196 33.3 131.071 33.7L127.771 43.45L124.521 33.725C124.371 33.275 124.046 32.95 123.521 32.95H123.421C122.921 32.95 122.621 33.275 122.471 33.725L119.196 43.45L115.946 33.75C115.796 33.275 115.471 32.95 114.971 32.95C114.396 32.95 113.996 33.4 113.996 33.875C113.996 34.05 114.071 34.25 114.121 34.4L118.046 45.325C118.246 45.9 118.646 46.2 119.121 46.2ZM136.356 29.35C136.356 29.95 136.856 30.375 137.481 30.375C138.131 30.375 138.631 29.95 138.631 29.35V29.025C138.631 28.4 138.131 28 137.481 28C136.856 28 136.356 28.4 136.356 29.025V29.35ZM136.531 45.15C136.531 45.7 136.956 46.125 137.506 46.125C138.056 46.125 138.456 45.7 138.456 45.15V33.925C138.456 33.375 138.031 32.95 137.481 32.95C136.956 32.95 136.531 33.4 136.531 33.925V45.15ZM147.248 46.225C147.998 46.225 148.598 46.1 149.148 45.875C149.473 45.75 149.698 45.475 149.698 45.125C149.698 44.675 149.323 44.3 148.873 44.3C148.723 44.3 148.373 44.475 147.698 44.475C146.398 44.475 145.523 43.9 145.523 42.325V34.775H148.873C149.348 34.775 149.748 34.4 149.748 33.925C149.748 33.475 149.348 33.075 148.873 33.075H145.523V30.025C145.523 29.5 145.073 29.05 144.548 29.05C143.998 29.05 143.598 29.5 143.598 30.025V33.075H142.548C142.098 33.075 141.698 33.45 141.698 33.925C141.698 34.375 142.098 34.775 142.548 34.775H143.598V42.575C143.598 45.2 145.173 46.225 147.248 46.225ZM153.031 45.15C153.031 45.7 153.456 46.125 154.006 46.125C154.556 46.125 154.956 45.7 154.956 45.15V38.6C154.956 36.175 156.606 34.55 158.831 34.55C161.106 34.55 162.406 36.05 162.406 38.45V45.15C162.406 45.7 162.831 46.125 163.381 46.125C163.906 46.125 164.331 45.7 164.331 45.15V37.975C164.331 34.9 162.506 32.8 159.381 32.8C157.156 32.8 155.806 33.925 154.956 35.325V28.6C154.956 28.075 154.531 27.625 153.981 27.625C153.456 27.625 153.031 28.075 153.031 28.6V45.15ZM177.806 50.075C179.756 50.075 181.006 49.1 182.131 46.425L187.181 34.375C187.231 34.225 187.281 34.05 187.281 33.9C187.281 33.375 186.856 32.95 186.331 32.95C185.831 32.95 185.556 33.275 185.406 33.675L181.406 43.85L176.906 33.7C176.731 33.275 176.456 32.95 175.931 32.95C175.381 32.95 174.956 33.375 174.956 33.9C174.956 34.075 175.006 34.25 175.081 34.425L180.481 45.875L180.381 46.075C179.681 47.65 178.981 48.375 177.781 48.375C177.131 48.375 176.756 48.275 176.381 48.15C176.231 48.1 176.081 48.05 175.906 48.05C175.481 48.05 175.081 48.4 175.081 48.875C175.081 49.325 175.381 49.575 175.681 49.7C176.331 49.925 176.956 50.075 177.806 50.075ZM195.845 46.3C199.745 46.3 202.62 43.2 202.62 39.55V39.5C202.62 35.85 199.77 32.8 195.895 32.8C191.995 32.8 189.145 35.9 189.145 39.55V39.6C189.145 43.25 191.97 46.3 195.845 46.3ZM195.895 44.575C193.17 44.575 191.12 42.325 191.12 39.55V39.5C191.12 36.775 193.045 34.5 195.845 34.5C198.57 34.5 200.645 36.775 200.645 39.55V39.6C200.645 42.325 198.695 44.575 195.895 44.575ZM217.182 33.925C217.182 33.375 216.757 32.95 216.232 32.95C215.682 32.95 215.282 33.375 215.282 33.925V40.475C215.282 42.9 213.607 44.525 211.407 44.525C209.132 44.525 207.832 43.025 207.832 40.625V33.925C207.832 33.375 207.382 32.95 206.857 32.95C206.307 32.95 205.907 33.375 205.907 33.925V41.1C205.907 44.175 207.732 46.275 210.857 46.275C213.082 46.275 214.407 45.15 215.282 43.75V45.15C215.282 45.7 215.707 46.125 216.232 46.125C216.782 46.125 217.182 45.675 217.182 45.15V33.925ZM221.512 45.15C221.512 45.7 221.937 46.125 222.487 46.125C223.037 46.125 223.437 45.675 223.437 45.15V40.75C223.437 37.025 225.487 35.15 227.987 34.85C228.487 34.775 228.837 34.4 228.837 33.875C228.837 33.325 228.462 32.9 227.887 32.9C226.262 32.9 224.387 34.2 223.437 36.35V33.925C223.437 33.375 223.012 32.95 222.462 32.95C221.937 32.95 221.512 33.4 221.512 33.925V45.15ZM25.875 75.15C25.875 75.675 26.3 76.125 26.85 76.125C27.4 76.125 27.8 75.675 27.8 75.15V64.775H31.125C31.6 64.775 31.975 64.4 31.975 63.95C31.975 63.475 31.6 63.125 31.125 63.125H27.775V62.075C27.775 60.225 28.525 59.325 30.025 59.325C30.4 59.325 30.75 59.4 31.075 59.45C31.575 59.5 32 59.125 32 58.625C32 58.2 31.675 57.875 31.3 57.8C30.875 57.7 30.4 57.65 29.775 57.65C28.6 57.65 27.65 58 27 58.65C26.275 59.375 25.875 60.5 25.875 61.975V63.1H24.825C24.375 63.1 24 63.475 24 63.925C24 64.4 24.35 64.775 24.825 64.775H25.875V75.15ZM34.3297 75.15C34.3297 75.7 34.7547 76.125 35.3047 76.125C35.8547 76.125 36.2547 75.675 36.2547 75.15V70.75C36.2547 67.025 38.3047 65.15 40.8047 64.85C41.3047 64.775 41.6547 64.4 41.6547 63.875C41.6547 63.325 41.2797 62.9 40.7047 62.9C39.0797 62.9 37.2047 64.2 36.2547 66.35V63.925C36.2547 63.375 35.8297 62.95 35.2797 62.95C34.7547 62.95 34.3297 63.4 34.3297 63.925V75.15ZM44.4615 59.35C44.4615 59.95 44.9615 60.375 45.5865 60.375C46.2365 60.375 46.7365 59.95 46.7365 59.35V59.025C46.7365 58.4 46.2365 58 45.5865 58C44.9615 58 44.4615 58.4 44.4615 59.025V59.35ZM44.6365 75.15C44.6365 75.7 45.0615 76.125 45.6115 76.125C46.1615 76.125 46.5615 75.7 46.5615 75.15V63.925C46.5615 63.375 46.1365 62.95 45.5865 62.95C45.0615 62.95 44.6365 63.4 44.6365 63.925V75.15ZM52.1789 68.825C52.4289 66.3 54.1289 64.425 56.3789 64.425C58.9539 64.425 60.3039 66.475 60.5039 68.825H52.1789ZM61.5539 74.35C61.7539 74.175 61.8539 73.95 61.8539 73.725C61.8539 73.275 61.4789 72.9 61.0039 72.9C60.7789 72.9 60.6039 73 60.4539 73.125C59.5039 74 58.3289 74.625 56.7289 74.625C54.4289 74.625 52.4539 73.05 52.1789 70.25H61.5289C62.0039 70.25 62.4289 69.875 62.4289 69.35C62.4289 65.925 60.2539 62.8 56.4289 62.8C52.8539 62.8 50.2289 65.8 50.2289 69.525V69.575C50.2289 73.575 53.1289 76.3 56.6789 76.3C58.8789 76.3 60.3289 75.525 61.5539 74.35ZM65.8238 75.15C65.8238 75.7 66.2488 76.125 66.7988 76.125C67.3488 76.125 67.7488 75.7 67.7488 75.15V68.6C67.7488 66.175 69.3988 64.55 71.6238 64.55C73.8988 64.55 75.1988 66.05 75.1988 68.45V75.15C75.1988 75.7 75.6238 76.125 76.1738 76.125C76.6988 76.125 77.1238 75.7 77.1238 75.15V67.975C77.1238 64.9 75.2988 62.8 72.1738 62.8C69.9488 62.8 68.5988 63.925 67.7488 65.325V63.925C67.7488 63.375 67.3238 62.95 66.7738 62.95C66.2488 62.95 65.8238 63.4 65.8238 63.925V75.15ZM93.5291 58.6C93.5291 58.05 93.1041 57.625 92.5541 57.625C92.0041 57.625 91.6041 58.05 91.6041 58.6V65.55C90.6041 64.1 89.0541 62.8 86.6541 62.8C83.5541 62.8 80.4791 65.3 80.4791 69.525V69.575C80.4791 73.825 83.5541 76.275 86.6541 76.275C89.0291 76.275 90.5541 74.95 91.6041 73.4V75.15C91.6041 75.7 92.0291 76.125 92.5791 76.125C93.1041 76.125 93.5291 75.7 93.5291 75.15V58.6ZM87.0041 64.525C89.4041 64.525 91.6791 66.525 91.6791 69.5V69.55C91.6791 72.525 89.4041 74.55 87.0041 74.55C84.5791 74.55 82.4541 72.6 82.4541 69.55V69.5C82.4541 66.375 84.5041 64.525 87.0041 64.525ZM102.106 76.25C104.681 76.25 106.706 74.825 106.706 72.375V72.325C106.706 70 104.556 69.225 102.556 68.625C100.831 68.1 99.2307 67.625 99.2307 66.4V66.35C99.2307 65.275 100.206 64.475 101.731 64.475C102.831 64.475 104.006 64.85 105.106 65.475C105.206 65.525 105.356 65.575 105.531 65.575C106.006 65.575 106.381 65.2 106.381 64.75C106.381 64.375 106.156 64.1 105.906 63.95C104.656 63.275 103.156 62.85 101.781 62.85C99.2307 62.85 97.3807 64.325 97.3807 66.55V66.6C97.3807 68.975 99.6307 69.675 101.656 70.25C103.356 70.725 104.881 71.225 104.881 72.525V72.575C104.881 73.825 103.756 74.625 102.206 74.625C100.806 74.625 99.4307 74.15 98.1057 73.25C97.9807 73.15 97.8057 73.1 97.6307 73.1C97.1557 73.1 96.7807 73.475 96.7807 73.925C96.7807 74.25 96.9557 74.5 97.1307 74.625C98.5307 75.625 100.406 76.25 102.106 76.25ZM117.777 75.15C117.777 75.7 118.202 76.125 118.752 76.125C119.302 76.125 119.702 75.7 119.702 75.15V68.6C119.702 66.175 121.352 64.55 123.577 64.55C125.852 64.55 127.152 66.05 127.152 68.45V75.15C127.152 75.7 127.577 76.125 128.127 76.125C128.652 76.125 129.077 75.7 129.077 75.15V67.975C129.077 64.9 127.252 62.8 124.127 62.8C121.902 62.8 120.552 63.925 119.702 65.325V63.925C119.702 63.375 119.277 62.95 118.727 62.95C118.202 62.95 117.777 63.4 117.777 63.925V75.15ZM139.082 76.3C142.982 76.3 145.857 73.2 145.857 69.55V69.5C145.857 65.85 143.007 62.8 139.132 62.8C135.232 62.8 132.382 65.9 132.382 69.55V69.6C132.382 73.25 135.207 76.3 139.082 76.3ZM139.132 74.575C136.407 74.575 134.357 72.325 134.357 69.55V69.5C134.357 66.775 136.282 64.5 139.082 64.5C141.807 64.5 143.882 66.775 143.882 69.55V69.6C143.882 72.325 141.932 74.575 139.132 74.575ZM153.032 76.2H153.082C153.582 76.2 153.957 75.9 154.132 75.325L157.382 65.9L160.607 75.325C160.782 75.9 161.157 76.2 161.657 76.2H161.732C162.182 76.2 162.582 75.9 162.782 75.325L166.732 64.375C166.782 64.225 166.857 64.025 166.857 63.85C166.857 63.375 166.457 62.95 165.907 62.95C165.382 62.95 165.107 63.3 164.982 63.7L161.682 73.45L158.432 63.725C158.282 63.275 157.957 62.95 157.432 62.95H157.332C156.832 62.95 156.532 63.275 156.382 63.725L153.107 73.45L149.857 63.75C149.707 63.275 149.382 62.95 148.882 62.95C148.307 62.95 147.907 63.4 147.907 63.875C147.907 64.05 147.982 64.25 148.032 64.4L151.957 75.325C152.157 75.9 152.557 76.2 153.032 76.2Z" fill="url(#paint0_linear)"/>
<path fill-rule="evenodd" clip-rule="evenodd" d="M287.75 25.875C286.722 25.875 285.737 26.2833 285.01 27.01C284.283 27.7367 283.875 28.7223 283.875 29.75V76.25C283.875 77.2777 284.283 78.2633 285.01 78.99C285.737 79.7167 286.722 80.125 287.75 80.125L334.25 80.125C335.278 80.125 336.263 79.7167 336.99 78.99C337.717 78.2633 338.125 77.2777 338.125 76.25V29.75C338.125 28.7223 337.717 27.7367 336.99 27.01C336.263 26.2833 335.278 25.875 334.25 25.875L287.75 25.875ZM287.75 84C285.695 84 283.723 83.1835 282.27 81.7301C280.817 80.2767 280 78.3054 280 76.25V29.75C280 27.6946 280.817 25.7233 282.27 24.2699C283.723 22.8165 285.695 22 287.75 22L334.25 22C336.305 22 338.277 22.8165 339.73 24.2699C341.183 25.7233 342 27.6946 342 29.75V76.25C342 78.3054 341.183 80.2767 339.73 81.7301C338.277 83.1835 336.305 84 334.25 84L287.75 84ZM297.438 51.0625C296.924 51.0625 296.431 51.2666 296.067 51.63C295.704 51.9933 295.5 52.4861 295.5 53C295.5 53.5139 295.704 54.0067 296.067 54.37C296.431 54.7334 296.924 54.9375 297.438 54.9375L319.885 54.9375L311.566 63.2532C311.202 63.6171 310.998 64.1105 310.998 64.625C310.998 65.1395 311.202 65.6329 311.566 65.9968C311.93 66.3606 312.423 66.5649 312.938 66.5649C313.452 66.5649 313.945 66.3606 314.309 65.9968L325.934 54.3718C326.115 54.1918 326.258 53.978 326.356 53.7426C326.453 53.5072 326.503 53.2548 326.503 53C326.503 52.7452 326.453 52.4928 326.356 52.2574C326.258 52.022 326.115 51.8082 325.934 51.6282L314.309 40.0032C313.945 39.6394 313.452 39.4351 312.938 39.4351C312.423 39.4351 311.93 39.6394 311.566 40.0032C311.202 40.3671 310.998 40.8605 310.998 41.375C310.998 41.8895 311.202 42.3829 311.566 42.7468L319.885 51.0625H297.438Z" fill="url(#paint1_linear)"/>
<defs>
<filter id="filter0_d" x="0" y="0" width="408" height="114" filterUnits="userSpaceOnUse" color-interpolation-filters="sRGB">
<feFlood flood-opacity="0" result="BackgroundImageFix"/>
<feColorMatrix in="SourceAlpha" type="matrix" values="0 0 0 0 0 0 0 0 0 0 0 0 0 0 0 0 0 0 127 0"/>
<feMorphology radius="1" operator="dilate" in="SourceAlpha" result="effect1_dropShadow"/>
<feOffset dy="4"/>
<feGaussianBlur stdDeviation="3"/>
<feColorMatrix type="matrix" values="0 0 0 0 0 0 0 0 0 0 0 0 0 0 0 0 0 0 0.25 0"/>
<feBlend mode="normal" in2="BackgroundImageFix" result="effect1_dropShadow"/>
<feBlend mode="normal" in="SourceGraphic" in2="effect1_dropShadow" result="shape"/>
</filter>
<linearGradient id="paint0_linear" x1="240" y1="53.0001" x2="23" y2="53.0001" gradientUnits="userSpaceOnUse">
<stop stop-color="#C31AFF"/>
<stop offset="1" stop-color="#001AFF"/>
</linearGradient>
<linearGradient id="paint1_linear" x1="280" y1="53" x2="342" y2="53" gradientUnits="userSpaceOnUse">
<stop stop-color="#001AFF"/>
<stop offset="1" stop-color="#C31AFF" stop-opacity="0.480501"/>
</linearGradient>
</defs>
</svg>
