<svg width="33" height="33" viewBox="0 0 33 33" fill="none" xmlns="http://www.w3.org/2000/svg">
<path fill-rule="evenodd" clip-rule="evenodd" d="M16.0417 0C7.18229 0 0 7.18229 0 16.0417C0 24.901 7.18229 32.0833 16.0417 32.0833C24.901 32.0833 32.0833 24.901 32.0833 16.0417C32.0833 7.18229 24.901 0 16.0417 0ZM2.91667 16.0417C2.91667 19.0896 3.95646 21.8954 5.69917 24.1237C6.92304 22.5165 8.50194 21.214 10.3125 20.318C12.1231 19.4219 14.1163 18.9566 16.1365 18.9583C18.1305 18.9564 20.0986 19.4097 21.8909 20.2836C23.6833 21.1576 25.2524 22.4291 26.479 24.0012C27.7425 22.344 28.5933 20.4097 28.9609 18.3584C29.3285 16.307 29.2023 14.1977 28.5928 12.2048C27.9833 10.2119 26.908 8.39278 25.4559 6.89797C24.0038 5.40316 22.2166 4.27563 20.2422 3.60866C18.2678 2.94169 16.163 2.75446 14.1019 3.06246C12.0408 3.37046 10.0826 4.16484 8.38945 5.37987C6.6963 6.5949 5.31681 8.19564 4.36513 10.0497C3.41344 11.9037 2.91693 13.9577 2.91667 16.0417V16.0417ZM16.0417 29.1667C13.0287 29.1712 10.1066 28.1347 7.77 26.2325C8.71052 24.8861 9.96237 23.7868 11.419 23.0281C12.8757 22.2694 14.4941 21.8738 16.1365 21.875C17.7584 21.8737 19.3572 22.2594 20.8001 23C22.243 23.7406 23.4884 24.8148 24.4329 26.1333C22.0781 28.0973 19.1079 29.171 16.0417 29.1667V29.1667Z" fill="url(#paint0_linear)"/>
<path fill-rule="evenodd" clip-rule="evenodd" d="M21.6667 9.83333C21.6667 11.3804 21.0521 12.8642 19.9581 13.9581C18.8642 15.0521 17.3804 15.6667 15.8333 15.6667C14.2862 15.6667 12.8025 15.0521 11.7085 13.9581C10.6146 12.8642 10 11.3804 10 9.83333C10 8.28624 10.6146 6.80251 11.7085 5.70854C12.8025 4.61458 14.2862 4 15.8333 4C17.3804 4 18.8642 4.61458 19.9581 5.70854C21.0521 6.80251 21.6667 8.28624 21.6667 9.83333V9.83333ZM18.75 9.83333C18.75 10.6069 18.4427 11.3487 17.8957 11.8957C17.3487 12.4427 16.6069 12.75 15.8333 12.75C15.0598 12.75 14.3179 12.4427 13.7709 11.8957C13.224 11.3487 12.9167 10.6069 12.9167 9.83333C12.9167 9.05979 13.224 8.31792 13.7709 7.77094C14.3179 7.22396 15.0598 6.91667 15.8333 6.91667C16.6069 6.91667 17.3487 7.22396 17.8957 7.77094C18.4427 8.31792 18.75 9.05979 18.75 9.83333V9.83333Z" fill="url(#paint1_linear)"/>
<defs>
<linearGradient id="paint0_linear" x1="16.0417" y1="0" x2="16.0417" y2="32.0833" gradientUnits="userSpaceOnUse">
<stop stop-color="#001AFF"/>
<stop offset="1" stop-color="#C31AFF"/>
</linearGradient>
<linearGradient id="paint1_linear" x1="15.8333" y1="4" x2="15.8333" y2="15.6667" gradientUnits="userSpaceOnUse">
<stop stop-color="#001AFF"/>
<stop offset="1" stop-color="#C31AFF"/>
</linearGradient>
</defs>
</svg>
