<svg width="240" height="100" viewBox="0 0 240 100" fill="none" xmlns="http://www.w3.org/2000/svg">
<g filter="url(#filter0_d)">
<rect x="25" y="23" width="190" height="50" rx="25" fill="url(#paint0_linear)"/>
</g>
<path d="M89.2276 57.25C88.0943 57.25 86.9943 57.0667 85.9276 56.7C84.8776 56.3167 83.986 55.775 83.2526 55.075L84.6276 52.55C86.2443 53.7333 87.736 54.325 89.1026 54.325C89.6193 54.325 90.0193 54.2417 90.3026 54.075C90.586 53.9083 90.7276 53.65 90.7276 53.3C90.7276 52.9333 90.536 52.675 90.1526 52.525C89.7693 52.3583 89.2026 52.1667 88.4526 51.95C87.4526 51.6167 86.6193 51.2917 85.9526 50.975C85.286 50.6583 84.786 50.275 84.4526 49.825C84.1193 49.375 83.9526 48.775 83.9526 48.025C83.9526 46.7083 84.4443 45.65 85.4276 44.85C86.411 44.0333 87.7443 43.625 89.4276 43.625C90.3276 43.625 91.2026 43.7667 92.0526 44.05C92.9193 44.3333 93.7276 44.8083 94.4776 45.475L92.9276 47.975C92.1776 47.4583 91.511 47.0833 90.9276 46.85C90.3443 46.6167 89.7776 46.5 89.2276 46.5C88.7943 46.5 88.4276 46.5833 88.1276 46.75C87.8276 46.9 87.6776 47.1667 87.6776 47.55C87.6776 47.9167 87.8443 48.1917 88.1776 48.375C88.511 48.5417 89.0276 48.725 89.7276 48.925C90.7943 49.2417 91.686 49.5667 92.4026 49.9C93.136 50.2167 93.6776 50.6167 94.0276 51.1C94.3943 51.5667 94.5776 52.1917 94.5776 52.975C94.5776 54.3083 94.0943 55.3583 93.1276 56.125C92.161 56.875 90.861 57.25 89.2276 57.25ZM96.6294 42.375V38.75H100.629V42.375H96.6294ZM96.6294 57V43.875H100.629V57H96.6294ZM108.468 57.05C107.301 57.05 106.284 56.75 105.418 56.15C104.551 55.55 103.868 54.75 103.368 53.75C102.884 52.75 102.643 51.6417 102.643 50.425C102.643 49.1417 102.901 47.9917 103.418 46.975C103.934 45.9417 104.651 45.125 105.568 44.525C106.484 43.925 107.543 43.625 108.743 43.625C109.726 43.625 110.593 43.8417 111.343 44.275C112.093 44.6917 112.693 45.275 113.143 46.025V43.875H116.618V56.1C116.618 57.4333 116.293 58.5833 115.643 59.55C115.009 60.5167 114.118 61.2583 112.968 61.775C111.834 62.3083 110.518 62.575 109.018 62.575C107.618 62.575 106.409 62.3417 105.393 61.875C104.393 61.425 103.518 60.7833 102.768 59.95L104.918 57.775C105.401 58.325 106.001 58.7583 106.718 59.075C107.451 59.4083 108.218 59.575 109.018 59.575C109.668 59.575 110.259 59.4583 110.793 59.225C111.343 58.9917 111.784 58.6167 112.118 58.1C112.451 57.6 112.618 56.9333 112.618 56.1V54.825C112.218 55.5583 111.634 56.1167 110.868 56.5C110.118 56.8667 109.318 57.05 108.468 57.05ZM109.843 53.875C110.459 53.875 111.009 53.7083 111.493 53.375C111.976 53.025 112.351 52.5833 112.618 52.05V49.3C112.351 48.6167 111.943 48.0667 111.393 47.65C110.843 47.2333 110.259 47.025 109.643 47.025C109.076 47.025 108.568 47.1917 108.118 47.525C107.684 47.8417 107.343 48.2667 107.093 48.8C106.843 49.3333 106.718 49.9083 106.718 50.525C106.718 51.4917 107.018 52.2917 107.618 52.925C108.218 53.5583 108.959 53.875 109.843 53.875ZM132.009 57H128.009V49.625C128.009 48.7583 127.842 48.1333 127.509 47.75C127.192 47.35 126.767 47.15 126.234 47.15C125.684 47.15 125.126 47.3667 124.559 47.8C123.992 48.2333 123.592 48.7917 123.359 49.475V57H119.359V43.875H122.959V46.075C123.442 45.3083 124.126 44.7083 125.009 44.275C125.892 43.8417 126.909 43.625 128.059 43.625C128.909 43.625 129.592 43.7833 130.109 44.1C130.642 44.4 131.042 44.8 131.309 45.3C131.592 45.7833 131.776 46.3167 131.859 46.9C131.959 47.4833 132.009 48.05 132.009 48.6V57ZM140.501 42.375V38.75H144.501V42.375H140.501ZM140.501 57V43.875H144.501V57H140.501ZM159.89 57H155.89V49.625C155.89 48.7583 155.723 48.1333 155.39 47.75C155.073 47.35 154.648 47.15 154.115 47.15C153.565 47.15 153.006 47.3667 152.44 47.8C151.873 48.2333 151.473 48.7917 151.24 49.475V57H147.24V43.875H150.84V46.075C151.323 45.3083 152.006 44.7083 152.89 44.275C153.773 43.8417 154.79 43.625 155.94 43.625C156.79 43.625 157.473 43.7833 157.99 44.1C158.523 44.4 158.923 44.8 159.19 45.3C159.473 45.7833 159.656 46.3167 159.74 46.9C159.84 47.4833 159.89 48.05 159.89 48.6V57Z" fill="white"/>
<defs>
<filter id="filter0_d" x="0" y="0" width="240" height="100" filterUnits="userSpaceOnUse" color-interpolation-filters="sRGB">
<feFlood flood-opacity="0" result="BackgroundImageFix"/>
<feColorMatrix in="SourceAlpha" type="matrix" values="0 0 0 0 0 0 0 0 0 0 0 0 0 0 0 0 0 0 127 0"/>
<feOffset dy="2"/>
<feGaussianBlur stdDeviation="12.5"/>
<feColorMatrix type="matrix" values="0 0 0 0 0 0 0 0 0 0 0 0 0 0 0 0 0 0 0.15 0"/>
<feBlend mode="normal" in2="BackgroundImageFix" result="effect1_dropShadow"/>
<feBlend mode="normal" in="SourceGraphic" in2="effect1_dropShadow" result="shape"/>
</filter>
<linearGradient id="paint0_linear" x1="215" y1="48" x2="25" y2="48" gradientUnits="userSpaceOnUse">
<stop stop-color="#063DFE"/>
<stop offset="1" stop-color="#C31AFF"/>
</linearGradient>
</defs>
</svg>
